<svg xmlns="http://www.w3.org/2000/svg" xml:space="preserve" width="2000" height="517" data-id="lg_JJ9Khmq0I8Qys1MdpF" data-version="1" viewBox="0 0 2000 517"><g data-padding="20"><g transform="translate(10 9.232)scale(.96429)"><rect width="560" height="167.24" x="346.167" y="-225.36" fill="none" rx="0" ry="0" transform="translate(400.5 574.88)"/><path d="M823.867 477.71v-5.92q-11.39 9.33-26.34 9.33-19.24 0-31.23-13.4-11.99-13.39-11.99-33.74t12.36-33.08 30.27-12.73q17.9 0 30.78 7.25 2.37 1.19 2.37 3.11v12.73q0 1.48-1.19 2.44-1.18.96-2.81.96t-2.81-.96-1.18-2.44v-10.8q-11.1-5.33-24.13-5.33-15.98 0-25.82 10.88-9.85 10.87-9.85 28.34 0 17.46 9.92 28.64 9.92 11.17 25.16 11.17t26.49-9.62v-22.2h-22.2q-1.48 0-2.44-.96t-.96-2.44.96-2.52 2.44-1.04h26.35q3.84 0 3.84 3.41v38.92q0 1.48-1.18 2.44-1.18.97-2.81.97t-2.81-.97q-1.19-.96-1.19-2.44m36.04-9.77q-12.51-13.17-12.51-33.3 0-20.12 12.51-33.3 12.51-13.17 32.19-13.17t32.19 13.17q12.51 13.18 12.51 33.38t-12.51 33.3-32.19 13.1-32.19-13.18m5.7-61.64q-10.21 11.18-10.21 28.34 0 17.17 10.21 28.35 10.21 11.17 26.49 11.17t26.49-11.17q10.21-11.18 10.21-28.35 0-17.16-10.21-28.34-10.21-11.17-26.49-11.17t-26.49 11.17m156.73 55.43q1.04-1.48 2.37-1.48t2.88 1.26q1.56 1.25 1.56 2.44 0 1.18-.89 2.22-12.43 14.95-34.19 14.95-19.24 0-31.37-12.81-12.14-12.8-12.14-33.52t12.14-33.67q12.13-12.95 30.56-12.95 18.42 0 30.71 7.11 2.22 1.18 2.22 3.1v12.73q0 1.48-1.19 2.44-1.18.97-2.81.97t-2.81-.97q-1.18-.96-1.18-2.44v-10.95q-10.96-5.03-24.13-5.03-15.83 0-25.68 11.02-9.84 11.03-9.84 28.49 0 17.47 9.84 28.49 9.85 11.03 26.79 11.03 16.95 0 27.16-12.43m79.78-17.17-21.61-44.4-21.45 44.4Zm-34.19-54.91h13.18q2.36 0 3.25 1.78l41.89 84.65q.29.6.29 1.34 0 2.51-2.36 3.4-.89.3-1.63.3-2.52 0-3.41-1.93l-13.76-27.82h-49.58l-13.77 27.82q-1.33 2.96-5.03 1.63-2.37-.89-2.37-3.26 0-.59.3-1.33l39.37-79.62h-6.37q-1.48 0-2.44-.96-.96-.97-.96-2.45t.96-2.51q.96-1.04 2.44-1.04m110.69 6.96h-29.6v41.73h29.6q24.42 0 24.42-21.01 0-11.1-6.14-15.91-6.15-4.81-18.28-4.81m0 48.54h-29.6v32.56q0 1.48-1.19 2.44-1.18.97-2.81.97t-2.81-.97q-1.18-.96-1.18-2.44v-81.1h-8.88q-1.48 0-2.45-.96-.96-.97-.96-2.45t.96-2.51q.97-1.04 2.45-1.04h46.47q32.41 0 32.41 27.68 0 19.98-17.61 25.75l19.09 33q.3.6.3 1.34 0 2.07-1.71 2.96-1.7.88-3.03.88t-2.37-1.62l-20.27-34.78q-3.85.29-6.81.29m80.52 32.55v-81.1h-29.3v8.73q0 1.48-1.19 2.44-1.18.96-2.81.96t-2.81-.96q-1.19-.96-1.19-2.44v-12.14q0-1.48 1.19-2.51 1.18-1.04 2.66-1.04h74.74q1.63 0 2.81 1.04 1.19 1.03 1.19 2.51v12.14q0 1.48-1.19 2.44-1.18.96-2.81.96t-2.81-.96-1.18-2.44v-8.73h-29.31v81.1q0 1.48-1.18 2.44-1.19.97-2.81.97-1.63 0-2.82-.97-1.18-.96-1.18-2.44"/><path fill="none" stroke="#000" stroke-width="1.06" d="M1026.697 114.405a110.495 110.495 0 1 0 0 220.99 110.495 110.495 0 1 0 0-220.99Z"/><rect width="75.033" height="318.66" x="588.651" y="-301.07" fill="none" rx="0" ry="0" transform="translate(400.5 301.31)"/><path d="M934.317 342.34q-12.97 0-20.86-6.63-7.9-6.62-7.9-17.06 0-11.84 12.41-25.1 13.53-14.38 39.48-25.94 25.94-11.56 67.68-22.28l4.51-21.99-4.23 4.23-7.47 7.47q-2.96 2.96-5.22 4.37-8.74 6.49-14.66 6.49-7.9 0-7.9-10.16 0-14.66 22-31.58 18.04-14.1 35.81-14.1 14.1 0 14.1 8.18 0 3.66-3.95 9.02-.84.85-1.41.85-1.13 0-1.13-1.13 0-.56.57-1.13 2.82-3.1 2.82-5.92 0-5.64-12.41-5.64-16.07 0-32.43 15.51-14.95 14.38-14.95 23.69 0 3.66 3.67 3.66 2.82 0 6.49-1.97 10.15-4.51 17.2-12.69 2.82-3.67 4.79-11 1.41-5.92 1.69-10.15.85-3.38 6.49-3.38 5.08 0 5.08 2.53 0 4.52-2.26 15.09-2.26 10.58-6.2 27.21 1.97-.56 3.66-.56h5.64q1.13 0 2.26.28 13.25 1.69 13.25 8.74 0 4.8-5.36 9.31-.28.85-1.41.85-1.12 0-1.12-.85 0-1.13.84-1.41 3.67-3.67 3.67-6.49 0-5.64-11.56-5.64-1.98 0-4.8.29-2.82.28-6.48.84-10.72 39.76-34.41 63.45-13.25 13.54-30.17 21.72-18.9 9.02-35.82 9.02m6.21-5.36q23.4 0 46.53-20.02 27.07-24.25 36.94-66.55-9.59 2.54-16.78 4.65-7.19 2.12-12.27 3.81-10.43 3.1-19.45 6.48-9.03 3.39-16.64 6.77-21.72 9.87-33 23.13-9.87 11.56-9.87 22.84 0 8.74 6.77 13.82 6.77 5.07 17.77 5.07"/></g><path fill="transparent" stroke="transparent" d="M720 0h560v517H720z"/></g></svg>